<svg xmlns="http://www.w3.org/2000/svg" xmlns:xlink="http://www.w3.org/1999/xlink" width="150" height="150" viewBox="0 0 150 150">
  <defs>
    <clipPath id="clip-github">
      <rect width="150" height="150"/>
    </clipPath>
  </defs>
  <g id="github" clip-path="url(#clip-github)">
    <g id="github-svgrepo-com" transform="translate(-14.309 -14.309)">
      <rect id="Rectangle_7" data-name="Rectangle 7" width="179" height="179" transform="translate(0.309 0.309)" fill="none"/>
      <path id="Path_1" data-name="Path 1" d="M77.091,2a74.841,74.841,0,0,0-23.65,145.94c3.742.6,4.939-1.721,4.939-3.742V131.55c-20.731,4.49-25.147-9.8-25.147-9.8A20.132,20.132,0,0,0,24.7,110.52c-6.811-4.64.524-4.49.524-4.49a15.717,15.717,0,0,1,11.451,7.484,16.091,16.091,0,0,0,21.779,6.212A16.166,16.166,0,0,1,63.171,109.7c-16.016-1.646-33.828-8.083-33.828-36.6a28.963,28.963,0,0,1,7.484-20.282,26.793,26.793,0,0,1,.748-19.758s6.287-2.021,20.581,7.484a72.072,72.072,0,0,1,37.42,0c14.295-9.654,20.581-7.484,20.581-7.484a26.793,26.793,0,0,1,.748,19.758A28.963,28.963,0,0,1,124.391,73.1c0,28.589-17.513,34.876-34.2,36.747a17.887,17.887,0,0,1,5.164,13.846V144.2c0,2.021,1.2,4.416,5.014,3.742A74.841,74.841,0,0,0,77.091,2Z" transform="translate(12.718 12.968)" fill="#fff"/>
    </g>
  </g>
</svg>
