<svg xmlns="http://www.w3.org/2000/svg" xmlns:xlink="http://www.w3.org/1999/xlink" width="150" height="150" viewBox="0 0 150 150">
  <defs>
    <clipPath id="clip-steam">
      <rect width="150" height="150"/>
    </clipPath>
  </defs>
  <g id="steam" clip-path="url(#clip-steam)">
    <path id="steam-svgrepo-com" d="M74.753,0A74.981,74.981,0,0,0,.022,68.981l40.2,16.612a21.171,21.171,0,0,1,11.95-3.687c.394,0,.781.025,1.175.037L71.228,56.056v-.369A28.275,28.275,0,1,1,99.5,83.987h-.656L73.372,102.181c0,.325.025.656.025.994a21.21,21.21,0,0,1-42.006,4.181L2.609,95.437A74.99,74.99,0,1,0,74.753,0ZM47.009,113.812,37.8,110a15.9,15.9,0,0,0,29.037-.781A15.91,15.91,0,0,0,46.528,88.206l9.519,3.938a11.738,11.738,0,0,1-9.031,21.669h-.006Zm71.344-58.144A18.844,18.844,0,1,0,99.509,74.512,18.869,18.869,0,0,0,118.353,55.669ZM85.4,55.637A14.159,14.159,0,1,1,99.553,69.794,14.153,14.153,0,0,1,85.4,55.637Z" transform="translate(0.116 0)" fill="#fff"/>
  </g>
</svg>
